<?xml version="1.0" encoding="UTF-8" standalone="no"?>
<svg width="130px" height="130px" viewBox="0 0 130 130" version="1.1" xmlns="http://www.w3.org/2000/svg" xmlns:xlink="http://www.w3.org/1999/xlink" xmlns:sketch="http://www.bohemiancoding.com/sketch/ns">
    <!-- Generator: Sketch 3.3.3 (12072) - http://www.bohemiancoding.com/sketch -->
    <title>payments-methods-icon</title>
    <desc>Created with Sketch.</desc>
    <defs></defs>
    <g id="Page-1" stroke="none" stroke-width="1" fill="none" fill-rule="evenodd" sketch:type="MSPage">
        <g id="payments-methods-icon" sketch:type="MSArtboardGroup">
            <g id="check-copy" sketch:type="MSLayerGroup" transform="translate(64.387628, 44.353553) rotate(-345.000000) translate(-64.387628, -44.353553) translate(4.887628, 16.853553)">
                <rect id="Rectangle-1" stroke="#CCCCCC" stroke-width="2" sketch:type="MSShapeGroup" x="1" y="1.50990331e-14" width="118" height="54" rx="2"></rect>
                <rect id="Rectangle-4" fill="#8080BE" sketch:type="MSShapeGroup" x="8" y="8" width="23" height="1"></rect>
                <rect id="Rectangle-4-Copy" fill="#8080BE" sketch:type="MSShapeGroup" x="7.81053131" y="13.1565965" width="52" height="1"></rect>
                <path d="M8.48125,30.5 L84.5248449,30.5" id="Line" stroke="#CCCCCC" stroke-linecap="square" sketch:type="MSShapeGroup"></path>
                <path d="M35.48125,43.5 L111.524845,43.5" id="Line-Copy" stroke="#CCCCCC" stroke-linecap="square" sketch:type="MSShapeGroup"></path>
                <rect id="Rectangle-6" stroke="#CCCCCC" sketch:type="MSShapeGroup" x="88" y="24" width="24" height="7"></rect>
            </g>
            <path d="M22.0241376,58.0186407 C21.9823416,52.5006593 26.4265295,48.0657436 31.9559814,48.1130262 L112.01552,48.7976189 C117.542521,48.8448805 122.023042,53.3613265 122.023042,58.8835891 L122.023042,103.110985 C122.023042,108.63405 117.55077,113.11138 112.018836,113.11138 L32.4456435,113.11138 C26.9204731,113.11138 22.4075531,108.637898 22.3657593,103.120191 L22.0241376,58.0186407 Z" id="Rectangle-1-Copy" stroke="#CCCCCC" fill="#FFFFFF" sketch:type="MSShapeGroup" transform="translate(72.023042, 80.611380) rotate(-330.000000) translate(-72.023042, -80.611380) "></path>
            <rect id="Rectangle-1-Copy-2" stroke="#CCCCCC" fill="#FFFFFF" sketch:type="MSShapeGroup" x="0" y="66" width="101" height="65" rx="10"></rect>
            <g id="Imported-Layers" sketch:type="MSLayerGroup" transform="translate(0.000000, 30.000000)">
                <path d="M86.3458015,85.8514851 C86.3269466,85.850495 86.1374046,85.8237624 85.9260305,85.7930693 C85.9260305,85.7930693 85.6690076,85.7544554 85.4596183,85.609901 C85.2561832,85.4683168 85.2025954,85.3425743 85.2025954,85.3425743 C85.120229,85.1475248 85.0527481,84.9742574 85.0487786,84.9574257 C85.0458015,84.9405941 84.9505344,84.9287129 84.8423664,84.9287129 C84.7322137,84.9287129 84.6438931,85.1009901 84.6438931,85.3138614 L84.6438931,89.6435644 C84.6438931,89.8554455 84.76,90.0277228 84.9029008,90.0277228 C85.0467939,90.0277228 85.1619084,89.8554455 85.1619084,89.6435644 L85.1619084,86.4544554 C85.1619084,86.2415842 85.2849618,86.1277228 85.4348092,86.2019802 C85.4348092,86.2019802 85.4348092,86.2019802 85.5935878,86.2544554 C85.8009924,86.3217822 85.9180916,86.3326733 85.9180916,86.3326733 C86.130458,86.349505 86.3219847,86.3653465 86.3438168,86.3663366 C86.3636641,86.3663366 86.3825191,86.2524752 86.3825191,86.109901 C86.3825191,85.9693069 86.3656489,85.8524752 86.3458015,85.8514851" id="Fill-1" fill="#8080BE" sketch:type="MSShapeGroup"></path>
                <path d="M80.0472519,85.6178218 C80.1236641,85.539604 80.2189313,85.4762376 80.3320611,85.4306931 C80.4461832,85.3811881 80.5821374,85.3574257 80.7349618,85.3574257 C80.9671756,85.3574257 81.1716031,85.4 81.3412977,85.4861386 C81.5139695,85.5683168 81.5377863,85.5990099 81.5377863,85.5990099 C81.6777099,85.7584158 81.8007634,85.9049505 81.8136641,85.9207921 C81.8245802,85.9366337 81.9277863,85.8910891 82.0379389,85.809901 C82.149084,85.7356436 82.2334351,85.6594059 82.2225191,85.6415842 C82.2106107,85.6227723 82.1232824,85.5039604 82.0250382,85.3752475 C82.0250382,85.3752475 82.0250382,85.3752475 81.9168702,85.2811881 C81.8096947,85.1871287 81.6896183,85.1049505 81.5625954,85.0405941 C81.4345802,84.9762376 81.3006107,84.9237624 81.1616794,84.8891089 C81.0217557,84.8554455 80.8778626,84.8366337 80.7349618,84.8366337 C80.5285496,84.8366337 80.3360305,84.8712871 80.161374,84.9405941 C79.9877099,85.0079208 79.8329008,85.1049505 79.7058779,85.2306931 C79.578855,85.3534653 79.4825954,85.5059406 79.4121374,85.6821782 C79.340687,85.8554455 79.3049618,86.050495 79.3049618,86.2663366 C79.3049618,86.6782178 79.6473282,87.1029703 79.6473282,87.1029703 C79.7812977,87.2683168 80.0244275,87.5128713 80.1901527,87.6485149 L80.7200763,88.0762376 C80.8858015,88.2118812 81.1398473,88.4485149 81.2817557,88.6039604 C81.2817557,88.6039604 81.3541985,88.6851485 81.4355725,88.8910891 C81.5109924,89.080198 81.5159542,89.119802 81.5159542,89.119802 C81.5387786,89.3306931 81.3879389,89.5059406 81.1716031,89.5059406 L79.7336641,89.5059406 C79.5203053,89.5059406 79.3466412,89.6237624 79.3466412,89.7673267 C79.3466412,89.9108911 79.5203053,90.0277228 79.7336641,90.0277228 L81.7690076,90.0277228 C81.9833588,90.0277228 82.1580153,89.9524752 82.1619847,89.8613861 C82.1649618,89.7693069 82.1520611,89.519802 82.1341985,89.3118812 C82.1341985,89.3118812 82.1173282,89.0990099 82.0141221,88.829703 C81.9148855,88.5574257 81.7799237,88.3831683 81.7799237,88.3831683 C81.650916,88.2158416 81.4127481,87.9653465 81.2519847,87.8277228 L80.7200763,87.380198 C80.559313,87.2425743 80.2943511,87.0178218 80.1345802,86.8772277 C80.1345802,86.8772277 80.069084,86.8207921 79.9708397,86.6722772 C79.8745802,86.529703 79.8239695,86.3930693 79.8219847,86.2663366 C79.8219847,86.1376238 79.8418321,86.0138614 79.8785496,85.9039604 C79.9162595,85.7930693 79.9748092,85.6960396 80.0472519,85.6178218" id="Fill-2" fill="#8080BE" sketch:type="MSShapeGroup"></path>
                <path d="M77.1078626,88.749505 C77.1068702,88.7693069 77.0870229,88.8851485 77.0641985,89.0089109 C77.0641985,89.0089109 77.0641985,89.0089109 77.008626,89.1069307 C76.9500763,89.2079208 76.8756489,89.2960396 76.7843511,89.3663366 C76.6910687,89.4405941 76.5759542,89.4990099 76.4459542,89.5415842 C76.3169466,89.5811881 76.1730534,89.6039604 76.0182443,89.6039604 C75.8574809,89.6039604 75.7106107,89.5762376 75.5756489,89.5277228 C75.4396947,89.4772277 75.3206107,89.4049505 75.2233588,89.3148515 C75.1221374,89.2247525 75.0447328,89.1148515 74.9871756,88.9881188 C74.9325954,88.8613861 74.9048092,88.7188119 74.9048092,88.560396 C74.9048092,88.3980198 74.9325954,88.2524752 74.9891603,88.1306931 C75.0467176,88.0069307 75.1270992,87.9029703 75.2283206,87.819802 C75.3325191,87.7376238 75.459542,87.6732673 75.6093893,87.6316832 L75.7612214,87.5881188 C75.9587023,87.5752475 76.1710687,87.5663366 76.2355725,87.5663366 C76.3010687,87.5663366 76.3526718,87.4673267 76.3526718,87.3465347 C76.3526718,87.2267327 76.3417557,87.1118812 76.3278626,87.0910891 C76.3169466,87.070297 76.2861832,87.0524752 76.2653435,87.0524752 C76.2445038,87.0524752 76.0539695,87.029703 75.8425954,87.0049505 C75.8425954,87.0049505 75.6322137,86.9772277 75.440687,86.8326733 C75.2541221,86.690099 75.1638168,86.4772277 75.1638168,86.1792079 C75.1638168,86.0455446 75.1846565,85.9257426 75.2283206,85.8227723 C75.2739695,85.7227723 75.3354962,85.6346535 75.4129008,85.5663366 C75.4922901,85.4970297 75.5865649,85.4455446 75.6957252,85.409901 C75.8068702,85.3722772 75.9299237,85.3524752 76.0638931,85.3524752 C76.3238931,85.3524752 76.5451908,85.4168317 76.7198473,85.5415842 C76.8925191,85.6633663 76.9173282,85.7346535 76.9173282,85.7346535 C76.9848092,85.9356436 77.041374,86.1148515 77.0443511,86.1346535 C77.0463359,86.1524752 77.1644275,86.1643564 77.3043511,86.1643564 C77.4472519,86.1643564 77.5603817,86.1475248 77.5544275,86.1217822 C77.550458,86.0970297 77.5058015,85.9128713 77.4522137,85.7089109 C77.4522137,85.7089109 77.4522137,85.7089109 77.3658779,85.5564356 C77.2815267,85.4039604 77.1743511,85.2712871 77.0463359,85.1653465 C76.9183206,85.0594059 76.770458,84.9762376 76.6067176,84.9207921 C76.4449618,84.8663366 76.2653435,84.8366337 76.0777863,84.8366337 C75.8574809,84.8366337 75.6550382,84.8722772 75.4803817,84.9425743 C75.3057252,85.0108911 75.1578626,85.1089109 75.0358015,85.2306931 C74.9107634,85.3514851 74.8145038,85.4960396 74.7480153,85.6623762 C74.6825191,85.8237624 74.6507634,86.0039604 74.6507634,86.1930693 C74.6507634,86.2930693 74.660687,86.4 74.6805344,86.5108911 C74.7033588,86.6217822 74.7370992,86.7287129 74.7867176,86.8306931 C74.8373282,86.9336634 74.9067939,87.0267327 74.9891603,87.1108911 L75.0377863,87.1594059 C75.099313,87.1980198 75.0764885,87.2762376 74.9861832,87.3277228 C74.9861832,87.3277228 74.9861832,87.3277228 74.9177099,87.3841584 C74.8035878,87.4772277 74.7073282,87.5841584 74.6279389,87.7059406 C74.5515267,87.8257426 74.4919847,87.9584158 74.4512977,88.1029703 C74.4116031,88.2435644 74.3917557,88.3920792 74.3917557,88.5425743 C74.3917557,88.7752475 74.4324427,88.9891089 74.5158015,89.1851485 C74.5971756,89.3792079 74.7132824,89.5465347 74.8571756,89.6841584 C75.0010687,89.8227723 75.1757252,89.929703 75.3751908,90.0059406 C75.5736641,90.0821782 75.7880153,90.119802 76.0182443,90.119802 C76.2435115,90.119802 76.4519084,90.0881188 76.6364885,90.0257426 C76.8250382,89.9653465 76.9917557,89.8772277 77.1287023,89.7633663 C77.2696183,89.6475248 77.3817557,89.5079208 77.4661069,89.3445545 C77.5484733,89.1841584 77.550458,89.1792079 77.550458,89.1792079 C77.5881679,88.9693069 77.6229008,88.7792079 77.6248855,88.7554455 C77.6278626,88.7326733 77.5127481,88.7148515 77.3698473,88.7148515 C77.2279389,88.7148515 77.108855,88.7306931 77.1078626,88.749505" id="Fill-3" fill="#8080BE" sketch:type="MSShapeGroup"></path>
                <path d="M71.1725191,85.2475248 C71.0524427,85.0712871 70.8212214,84.9287129 70.6584733,84.9287129 C70.4957252,84.9287129 70.3607634,85.1009901 70.3607634,85.3138614 L70.3607634,87.6108911 C70.3607634,87.8217822 70.189084,87.9950495 69.9747328,87.9950495 L69.8705344,87.9950495 C69.6571756,87.9950495 69.4845038,88.1108911 69.4845038,88.2534653 C69.4845038,88.3940594 69.6571756,88.5089109 69.8705344,88.5089109 L69.9747328,88.5089109 C70.189084,88.5089109 70.3607634,88.6851485 70.3607634,88.8970297 L70.3607634,89.6435644 C70.3607634,89.8554455 70.4778626,90.0277228 70.6207634,90.0277228 C70.7626718,90.0277228 70.879771,89.8554455 70.879771,89.6435644 L70.879771,88.8970297 C70.879771,88.6851485 71.0524427,88.5089109 71.2648092,88.5089109 L72.629313,88.5089109 C72.8426718,88.5089109 73.0133588,88.390099 73.0103817,88.2435644 C73.0074046,88.0980198 72.9061832,87.8316832 72.7880916,87.6564356 L71.1725191,85.2475248 L71.1725191,85.2475248 Z M71.2648092,87.9950495 C71.0524427,87.9950495 70.879771,87.8217822 70.879771,87.6108911 L70.879771,86.0277228 C70.879771,85.8138614 70.9730534,85.7871287 71.0901527,85.9643564 L72.2184733,87.6732673 C72.3345802,87.8524752 72.2551908,87.9950495 72.0428244,87.9950495 L71.2648092,87.9950495 L71.2648092,87.9950495 Z" id="Fill-4" fill="#8080BE" sketch:type="MSShapeGroup"></path>
                <path d="M59.4417557,88.7554455 C59.4387786,88.7722772 59.4070229,88.9079208 59.3673282,89.0554455 C59.3673282,89.0554455 59.3673282,89.0554455 59.3048092,89.1584158 C59.2452672,89.2623762 59.1708397,89.3435644 59.079542,89.4089109 C58.9892366,89.4732673 58.8890076,89.5217822 58.7778626,89.5554455 C58.6667176,89.5871287 58.5476336,89.6039604 58.4216031,89.6039604 C58.2151908,89.6039604 58.0316031,89.5663366 57.8817557,89.4960396 C57.7329008,89.4217822 57.6068702,89.3247525 57.5096183,89.2049505 C57.4074046,89.0831683 57.3349618,88.9485149 57.2903053,88.7980198 C57.2426718,88.6455446 57.2168702,88.4871287 57.2168702,88.3257426 C57.2168702,88.160396 57.2426718,88.0069307 57.2932824,87.8693069 C57.3438931,87.7336634 57.4173282,87.6128713 57.5155725,87.5108911 C57.6118321,87.4128713 57.7319084,87.3316832 57.8718321,87.2762376 C58.009771,87.2188119 58.1764885,87.1940594 58.3580916,87.1940594 C58.5387023,87.1940594 58.719313,87.2237624 58.8969466,87.2881188 C59.0676336,87.3485149 59.0993893,87.3712871 59.0993893,87.3712871 C59.2670992,87.5009901 59.5082443,87.6069307 59.6312977,87.6069307 C59.7563359,87.6069307 59.8456489,87.4346535 59.829771,87.2227723 L59.7831298,86.6425743 C59.7672519,86.4326733 59.7384733,86.0861386 59.7216031,85.8752475 L59.6739695,85.3138614 C59.6551145,85.1009901 59.469542,84.9287129 59.2561832,84.9287129 L57.3270229,84.9287129 C57.1136641,84.9287129 56.9409924,85.0455446 56.9409924,85.1871287 C56.9409924,85.3267327 57.1136641,85.4435644 57.3270229,85.4435644 L58.7351908,85.4435644 C58.9465649,85.4435644 59.1380916,85.6148515 59.160916,85.8277228 L59.2264122,86.5237624 C59.2482443,86.7336634 59.231374,86.8871287 59.1926718,86.8623762 C59.1926718,86.8623762 59.1926718,86.8623762 59.1559542,86.8435644 C59.060687,86.7990099 58.9614504,86.7623762 58.8582443,86.7386139 C58.7590076,86.7158416 58.6587786,86.7009901 58.5545802,86.690099 C58.4543511,86.680198 58.3551145,86.6772277 58.2628244,86.6772277 C58.0425191,86.6772277 57.831145,86.719802 57.638626,86.8049505 C57.4500763,86.890099 57.2823664,87.0079208 57.1454198,87.1554455 C57.0074809,87.3029703 56.899313,87.4772277 56.8199237,87.6732673 C56.7405344,87.8722772 56.7008397,88.0871287 56.7008397,88.3108911 C56.7008397,88.5633663 56.7345802,88.8019802 56.8070229,89.0178218 C56.8774809,89.2376238 56.9846565,89.4326733 57.129542,89.5940594 C57.2744275,89.7564356 57.4560305,89.8861386 57.6703817,89.980198 C57.8837405,90.0712871 58.1358015,90.119802 58.4216031,90.119802 C58.6240458,90.119802 58.8165649,90.0910891 58.9922137,90.0336634 C59.1708397,89.9772277 59.3296183,89.8940594 59.4685496,89.7841584 C59.6064885,89.6742574 59.7245802,89.5376238 59.8138931,89.3742574 C59.9022137,89.209901 59.9081679,89.1881188 59.9081679,89.1881188 C59.9548092,88.9782178 59.9954962,88.7910891 59.9964885,88.7673267 C60.000458,88.7425743 59.8793893,88.7237624 59.7255725,88.7237624 C59.5727481,88.7237624 59.4457252,88.7386139 59.4417557,88.7554455" id="Fill-5" fill="#8080BE" sketch:type="MSShapeGroup"></path>
                <path d="M53.4736641,84.8366337 C53.1124427,84.8366337 52.8067939,84.9405941 52.5636641,85.1445545 C52.3215267,85.349505 52.211374,85.6574257 52.211374,85.6574257 C52.1399237,85.8564356 52.0793893,86.0405941 52.0754198,86.0653465 C52.070458,86.0920792 52.1825954,86.1118812 52.3254962,86.1118812 C52.4674046,86.1118812 52.5884733,86.0990099 52.590458,86.0811881 C52.5924427,86.0633663 52.6559542,85.8861386 52.7274046,85.6851485 C52.7274046,85.6851485 52.739313,85.6574257 52.9020611,85.5386139 C53.0628244,85.419802 53.2682443,85.3574257 53.5044275,85.3574257 C53.6612214,85.3574257 53.8051145,85.4 53.9351145,85.4831683 C54.0680916,85.5683168 54.1871756,85.6940594 54.2893893,85.8613861 C54.3955725,86.029703 54.4769466,86.2405941 54.5434351,86.4871287 C54.5950382,86.690099 54.6069466,86.7891089 54.6069466,86.7891089 C54.6327481,87 54.5067176,87.0782178 54.3280916,86.9633663 C54.3280916,86.9633663 54.3241221,86.960396 54.1574046,86.8910891 C53.9400763,86.8029703 53.7038931,86.7584158 53.4498473,86.7584158 C53.2285496,86.7584158 53.0231298,86.8009901 52.839542,86.890099 C52.6559542,86.9752475 52.5001527,87.0960396 52.371145,87.2485149 C52.2451145,87.3970297 52.1458779,87.570297 52.0774046,87.7673267 C52.0079389,87.960396 51.9732061,88.1683168 51.9732061,88.3851485 C51.9732061,88.6128713 52.0039695,88.8366337 52.0654962,89.0405941 C52.1250382,89.250495 52.2232824,89.4386139 52.3532824,89.5940594 C52.4832824,89.7544554 52.65,89.8821782 52.8445038,89.9772277 C53.0439695,90.0693069 53.2722137,90.119802 53.5272519,90.119802 C53.8001527,90.119802 54.0442748,90.0623762 54.2546565,89.9524752 C54.4660305,89.8405941 54.6436641,89.6782178 54.7855725,89.4653465 C54.9274809,89.2594059 55.0336641,88.9990099 55.1051145,88.6960396 C55.1765649,88.3960396 55.2103053,88.050495 55.2103053,87.6663366 C55.2103053,86.7485149 55.071374,86.0435644 54.7984733,85.5712871 C54.5166412,85.0851485 54.0700763,84.8366337 53.4736641,84.8366337 L53.4736641,84.8366337 Z M53.5401527,89.6039604 C53.3833588,89.6039604 53.2384733,89.570297 53.1164122,89.5079208 C52.9933588,89.4415842 52.8861832,89.3544554 52.8028244,89.2475248 C52.7154962,89.1405941 52.65,89.0128713 52.6053435,88.8712871 C52.560687,88.7287129 52.5358779,88.5811881 52.5358779,88.4277228 C52.5358779,88.2752475 52.560687,88.1277228 52.6063359,87.9871287 C52.6539695,87.8475248 52.720458,87.7227723 52.8087786,87.6188119 C52.8931298,87.5128713 53.0012977,87.4316832 53.1273282,87.3683168 C53.2543511,87.3059406 53.400229,87.2732673 53.5580153,87.2732673 C53.6473282,87.2732673 53.7406107,87.2891089 53.8378626,87.3168317 C53.9351145,87.3465347 54.0343511,87.3891089 54.1266412,87.439604 C54.2229008,87.4930693 54.3171756,87.5564356 54.4064885,87.6247525 L54.4977863,87.6950495 C54.5722137,87.7524752 54.6119084,87.9722772 54.5870992,88.1821782 C54.5870992,88.1821782 54.5126718,88.8613861 54.3141985,89.1643564 C54.1187023,89.4594059 53.8646565,89.6039604 53.5401527,89.6039604 L53.5401527,89.6039604 Z" id="Fill-6" fill="#8080BE" sketch:type="MSShapeGroup"></path>
                <path d="M47.1979389,85.1524752 C47.1989313,85.2762376 47.2644275,85.539604 47.3438168,85.7356436 L48.9077863,89.6722772 C48.9851908,89.8693069 49.1787023,90.0277228 49.3364885,90.0277228 C49.4962595,90.0277228 49.559771,89.8693069 49.481374,89.6722772 L47.9412214,85.8089109 C47.8648092,85.6128713 47.9739695,85.4514851 48.1853435,85.4514851 L50.0887023,85.4514851 C50.3000763,85.4514851 50.4747328,85.3336634 50.4747328,85.190099 C50.4747328,85.0465347 50.3000763,84.9287129 50.0887023,84.9287129 L47.5819847,84.9287129 C47.3696183,84.9287129 47.1969466,85.0287129 47.1979389,85.1524752" id="Fill-7" fill="#8080BE" sketch:type="MSShapeGroup"></path>
                <path d="M44.9948855,87.570297 C44.8132824,87.460396 44.8053435,87.2653465 44.9730534,87.1356436 C44.9730534,87.1356436 45.1308397,87.0178218 45.2529008,86.8277228 C45.3948092,86.6049505 45.4662595,86.3663366 45.4662595,86.1217822 C45.4662595,85.9207921 45.4285496,85.739604 45.3600763,85.5851485 C45.2906107,85.4306931 45.1903817,85.2970297 45.0653435,85.190099 C44.9422901,85.0851485 44.7954198,85.0039604 44.6287023,84.9514851 C44.4619847,84.8990099 44.2783969,84.8742574 44.0858779,84.8742574 C43.8903817,84.8742574 43.7087786,84.8990099 43.5410687,84.9514851 C43.3733588,85.0039604 43.2235115,85.0831683 43.0984733,85.1871287 C42.9724427,85.2940594 42.8732061,85.4257426 42.8017557,85.580198 C42.7312977,85.7366337 42.6955725,85.9188119 42.6955725,86.1217822 C42.6955725,86.3663366 42.7680153,86.6089109 42.9119084,86.839604 C43.0329771,87.0356436 43.1332061,87.1168317 43.1332061,87.1168317 C43.2979389,87.250495 43.3019084,87.4356436 43.1441221,87.5316832 C43.1441221,87.5316832 43.1441221,87.5316832 43.0359542,87.6148515 C42.8980153,87.7217822 42.7898473,87.8316832 42.7084733,87.9465347 C42.6270992,88.0633663 42.5725191,88.1841584 42.5447328,88.3069307 C42.5139695,88.4267327 42.499084,88.5564356 42.499084,88.6920792 C42.499084,88.9237624 42.5427481,89.1316832 42.621145,89.309901 C42.7045038,89.4851485 42.8166412,89.6366337 42.9605344,89.7584158 C43.100458,89.8782178 43.2721374,89.970297 43.4646565,90.029703 C43.6541985,90.0891089 43.8655725,90.119802 44.0858779,90.119802 C44.3071756,90.119802 44.5135878,90.0891089 44.7031298,90.029703 C44.8966412,89.970297 45.0633588,89.8782178 45.2032824,89.7584158 C45.3451908,89.6366337 45.4573282,89.4851485 45.5387023,89.309901 C45.6200763,89.1316832 45.6617557,88.9237624 45.6617557,88.6920792 C45.6617557,88.4188119 45.5724427,88.1633663 45.3977863,87.929703 C45.2429771,87.7247525 44.9948855,87.570297 44.9948855,87.570297 L44.9948855,87.570297 Z M44.0858779,89.6039604 C43.94,89.6039604 43.7980916,89.5821782 43.6651145,89.5445545 C43.5351145,89.5059406 43.4190076,89.4465347 43.3247328,89.370297 C43.2284733,89.2960396 43.1550382,89.2019802 43.0984733,89.0851485 L43.0419084,88.9742574 C43.0290076,88.8237624 43.0419084,88.5742574 43.0667176,88.4217822 C43.0667176,88.4217822 43.0667176,88.4217822 43.1282443,88.3227723 C43.189771,88.2217822 43.2691603,88.1316832 43.360458,88.0554455 C43.4596947,87.9792079 43.5708397,87.9079208 43.6978626,87.8435644 L43.8229008,87.7831683 C43.969771,87.7059406 44.2416794,87.7227723 44.4332061,87.8148515 C44.4332061,87.8148515 44.5254962,87.8643564 44.6683969,87.9663366 C44.8132824,88.070297 44.9254198,88.1683168 44.9929008,88.2613861 C45.0603817,88.3465347 45.1050382,88.4267327 45.1199237,88.4940594 C45.1348092,88.5683168 45.1467176,88.6336634 45.1467176,88.6920792 C45.1467176,88.8415842 45.1139695,88.9722772 45.0554198,89.0831683 C44.9929008,89.2 44.9125191,89.2940594 44.8152672,89.3693069 C44.7140458,89.4465347 44.600916,89.5059406 44.4729008,89.5445545 C44.3458779,89.5821782 44.2158779,89.6039604 44.0858779,89.6039604 L44.0858779,89.6039604 Z M43.2780916,85.8009901 C43.3167939,85.7128713 43.3763359,85.6376238 43.4507634,85.5772277 C43.5251908,85.5178218 43.6184733,85.4683168 43.7236641,85.4376238 C43.8338168,85.4069307 43.9558779,85.3891089 44.0858779,85.3891089 C44.2158779,85.3891089 44.3369466,85.4069307 44.4461069,85.4376238 C44.5532824,85.4683168 44.6425954,85.5158416 44.7170229,85.5762376 C44.7924427,85.6376238 44.8490076,85.7128713 44.8887023,85.8009901 C44.9303817,85.8930693 44.9492366,85.9990099 44.9492366,86.1217822 C44.9492366,86.2227723 44.9303817,86.319802 44.8867176,86.4059406 C44.8440458,86.4960396 44.7825191,86.5821782 44.7031298,86.6594059 C44.6217557,86.7405941 44.5205344,86.8207921 44.4074046,86.8940594 L44.2912977,86.9693069 C44.1761832,87.0455446 43.9270992,87.0247525 43.739542,86.9237624 C43.739542,86.9237624 43.5807634,86.8415842 43.4319084,86.6732673 C43.2870229,86.5108911 43.2165649,86.329703 43.2165649,86.1217822 C43.2165649,85.9990099 43.2374046,85.8930693 43.2780916,85.8009901 L43.2780916,85.8009901 Z" id="Fill-8" fill="#8080BE" sketch:type="MSShapeGroup"></path>
                <path d="M30.5063359,88.0762376 C30.6125191,88.1207921 30.7316031,88.1554455 30.8606107,88.180198 C30.9896183,88.2089109 31.1335115,88.2227723 31.2873282,88.2227723 C31.5096183,88.2227723 31.7170229,88.1782178 31.9006107,88.0930693 C32.0851908,88.0069307 32.2429771,87.890099 32.3749618,87.7425743 C32.5029771,87.5940594 32.6041985,87.4227723 32.678626,87.2277228 C32.7520611,87.0316832 32.7877863,86.8237624 32.7877863,86.6049505 C32.7877863,86.3752475 32.7540458,86.1524752 32.6875573,85.9405941 C32.6180916,85.729703 32.518855,85.5415842 32.3908397,85.3762376 C32.2598473,85.2128713 32.099084,85.0811881 31.9055725,84.9841584 C31.7130534,84.8861386 31.4927481,84.8366337 31.2496183,84.8366337 C30.9777099,84.8366337 30.7316031,84.8930693 30.5232061,85.0069307 C30.3138168,85.1188119 30.1341985,85.2871287 29.9922901,85.5029703 C29.8533588,85.7158416 29.7441985,85.980198 29.669771,86.2881188 C29.6012977,86.5940594 29.5635878,86.9485149 29.5635878,87.3346535 C29.5635878,88.2475248 29.7035115,88.9445545 29.9793893,89.4029703 C30.2632061,89.8792079 30.709771,90.119802 31.311145,90.119802 C31.6743511,90.119802 31.9849618,90.0178218 32.2251145,89.8188119 C32.4682443,89.6207921 32.5645038,89.3356436 32.5645038,89.3356436 C32.6309924,89.1366337 32.689542,88.9524752 32.6954962,88.9257426 C32.6974809,88.9019802 32.5843511,88.8821782 32.4374809,88.8821782 C32.2925954,88.8821782 32.1705344,88.8970297 32.1685496,88.9138614 C32.1665649,88.9326733 32.1407634,89.050495 32.1139695,89.1742574 C32.1139695,89.1742574 32.1139695,89.1742574 32.0653435,89.2574257 C32.0196947,89.3366337 31.9591603,89.4039604 31.8847328,89.4544554 C31.8103053,89.5079208 31.7219847,89.5445545 31.6207634,89.5663366 C31.5125954,89.590099 31.3974809,89.6039604 31.2714504,89.6039604 C31.1126718,89.6039604 30.9648092,89.5653465 30.8338168,89.4881188 C30.7018321,89.4108911 30.5777863,89.2920792 30.4716031,89.1376238 C30.3674046,88.9782178 30.279084,88.7772277 30.2116031,88.5366337 C30.1550382,88.3376238 30.141145,88.2386139 30.141145,88.2386139 C30.1123664,88.0287129 30.1252672,87.8762376 30.1669466,87.9049505 C30.1669466,87.9049505 30.1669466,87.9049505 30.208626,87.9287129 C30.2969466,87.9831683 30.3981679,88.0326733 30.5063359,88.0762376 L30.5063359,88.0762376 Z M31.2387023,85.3524752 C31.3974809,85.3524752 31.541374,85.3881188 31.6654198,85.4564356 C31.7934351,85.5287129 31.9035878,85.6188119 31.9889313,85.729703 C32.0822137,85.8445545 32.1496947,85.9752475 32.199313,86.1207921 C32.2459542,86.2663366 32.2727481,86.4158416 32.2727481,86.5633663 C32.2727481,86.719802 32.2469466,86.8693069 32.2012977,87.0089109 C32.1546565,87.1465347 32.0851908,87.2673267 31.9958779,87.3732673 C31.909542,87.4752475 31.8023664,87.5584158 31.671374,87.6178218 C31.541374,87.6752475 31.3915267,87.7059406 31.2248092,87.7059406 C31.1345038,87.7059406 31.040229,87.6920792 30.9409924,87.670297 C30.8367939,87.6465347 30.7375573,87.6118812 30.6373282,87.5663366 C30.5341221,87.5227723 30.4368702,87.4653465 30.3406107,87.4039604 L30.2433588,87.3376238 C30.16,87.290099 30.100458,87.0782178 30.1123664,86.8653465 C30.1123664,86.8653465 30.1232824,86.650495 30.1838168,86.4118812 C30.2433588,86.1762376 30.3277099,85.9762376 30.430916,85.819802 C30.531145,85.6673267 30.6522137,85.5485149 30.7901527,85.4683168 C30.929084,85.3930693 31.0769466,85.3524752 31.2387023,85.3524752 L31.2387023,85.3524752 Z" id="Fill-9" fill="#8080BE" sketch:type="MSShapeGroup"></path>
                <path d="M27.8031298,85.6386139 C27.6473282,85.3970297 27.4508397,85.2 27.2206107,85.0584158 C26.9874046,84.9118812 26.7184733,84.8366337 26.4267176,84.8366337 C26.1290076,84.8366337 25.8650382,84.9108911 25.6308397,85.0554455 C25.3996183,85.1980198 25.2021374,85.3930693 25.0433588,85.6326733 C24.8845802,85.8722772 24.7645038,86.1564356 24.6831298,86.4712871 C24.6007634,86.7861386 24.5610687,87.1247525 24.5610687,87.4772277 C24.5610687,87.8277228 24.6007634,88.1663366 24.6851145,88.4811881 C24.7674809,88.7980198 24.889542,89.080198 25.0453435,89.3207921 C25.2021374,89.5643564 25.3996183,89.760396 25.6308397,89.9029703 C25.8650382,90.0465347 26.1290076,90.119802 26.4267176,90.119802 C26.7184733,90.119802 26.9864122,90.0455446 27.218626,89.8990099 C27.448855,89.7564356 27.6453435,89.5594059 27.801145,89.3168317 C27.9579389,89.0762376 28.0790076,88.7910891 28.1593893,88.4762376 C28.2407634,88.160396 28.2824427,87.8237624 28.2824427,87.4772277 C28.2824427,87.1277228 28.2407634,86.7920792 28.1593893,86.4772277 C28.0790076,86.160396 27.9579389,85.8782178 27.8031298,85.6386139 L27.8031298,85.6386139 Z M26.4217557,85.3574257 C26.6331298,85.3574257 26.8226718,85.4118812 26.9883969,85.519802 C27.1551145,85.6277228 27.2930534,85.780198 27.4101527,85.9693069 C27.5262595,86.1613861 27.6145802,86.3891089 27.6731298,86.6455446 C27.7346565,86.9049505 27.7654198,87.1861386 27.7654198,87.4772277 C27.7654198,87.7653465 27.7356489,88.0405941 27.6761069,88.2980198 C27.619542,88.5554455 27.5292366,88.7821782 27.4141221,88.9772277 C27.3039695,89.1673267 27.1620611,89.3207921 26.9933588,89.4326733 C26.828626,89.5415842 26.6351145,89.5950495 26.4217557,89.5950495 C26.2014504,89.5950495 26.0069466,89.5405941 25.8441985,89.4306931 C25.6764885,89.3188119 25.5325954,89.1633663 25.420458,88.9722772 C25.3063359,88.7792079 25.2180153,88.549505 25.1584733,88.2940594 C25.1019084,88.0366337 25.071145,87.7613861 25.071145,87.4772277 C25.071145,87.1861386 25.1019084,86.9049505 25.1624427,86.6455446 C25.2219847,86.3891089 25.3103053,86.1613861 25.4244275,85.9722772 C25.5375573,85.7851485 25.6794656,85.6316832 25.8481679,85.5207921 C26.0119084,85.4128713 26.2054198,85.3574257 26.4217557,85.3574257 L26.4217557,85.3574257 Z" id="Fill-10" fill="#8080BE" sketch:type="MSShapeGroup"></path>
                <path d="M21.6117557,85.609901 C21.409313,85.4683168 21.3567176,85.3425743 21.3567176,85.3425743 C21.2743511,85.1475248 21.2038931,84.9742574 21.200916,84.9574257 C21.1959542,84.9405941 21.1046565,84.9287129 20.9954962,84.9287129 C20.8843511,84.9287129 20.7980153,85.1009901 20.7980153,85.3138614 L20.7980153,89.6435644 C20.7980153,89.8554455 20.9141221,90.0277228 21.0560305,90.0277228 C21.1969466,90.0277228 21.3130534,89.8554455 21.3130534,89.6435644 L21.3130534,86.4544554 C21.3130534,86.2415842 21.4361069,86.1277228 21.5889313,86.2019802 C21.5889313,86.2019802 21.5889313,86.2019802 21.7467176,86.2544554 C21.9551145,86.3217822 22.0722137,86.3326733 22.0722137,86.3326733 C22.2835878,86.349505 22.4721374,86.3653465 22.4949618,86.3663366 C22.5177863,86.3663366 22.5346565,86.2524752 22.5346565,86.109901 C22.5346565,85.9693069 22.519771,85.8524752 22.4979389,85.8514851 C22.4770992,85.850495 22.289542,85.8237624 22.0801527,85.7930693 C22.0801527,85.7930693 21.8221374,85.7544554 21.6117557,85.609901" id="Fill-11" fill="#8080BE" sketch:type="MSShapeGroup"></path>
                <path d="M16.1993893,85.6178218 C16.2758015,85.539604 16.369084,85.4762376 16.4822137,85.4306931 C16.5983206,85.3811881 16.7332824,85.3574257 16.889084,85.3574257 C17.1212977,85.3574257 17.3247328,85.4 17.4954198,85.4861386 C17.6651145,85.5683168 17.6919084,85.5990099 17.6919084,85.5990099 C17.8298473,85.7584158 17.9529008,85.9049505 17.9658015,85.9207921 C17.9787023,85.9366337 18.0799237,85.8910891 18.1900763,85.809901 C18.3032061,85.7356436 18.3835878,85.6594059 18.3746565,85.6415842 C18.3627481,85.6227723 18.2744275,85.5039604 18.1791603,85.3752475 C18.1791603,85.3752475 18.1791603,85.3752475 18.0690076,85.2811881 C17.9618321,85.1871287 17.8417557,85.1049505 17.7157252,85.0405941 C17.5877099,84.9762376 17.4527481,84.9237624 17.3138168,84.8891089 C17.1719084,84.8554455 17.0309924,84.8366337 16.889084,84.8366337 C16.6816794,84.8366337 16.4861832,84.8712871 16.3135115,84.9405941 C16.1378626,85.0079208 15.9850382,85.1049505 15.86,85.2306931 C15.7339695,85.3534653 15.6347328,85.5059406 15.5642748,85.6821782 C15.4948092,85.8554455 15.4570992,86.050495 15.4570992,86.2663366 C15.4570992,86.6782178 15.800458,87.1029703 15.800458,87.1029703 C15.9334351,87.2683168 16.1775573,87.5128713 16.3442748,87.6485149 L16.8722137,88.0762376 C17.0379389,88.2118812 17.29,88.4485149 17.4338931,88.6039604 C17.4338931,88.6039604 17.509313,88.6851485 17.5887023,88.8910891 C17.661145,89.080198 17.6670992,89.119802 17.6670992,89.119802 C17.6938931,89.3306931 17.5380916,89.5059406 17.3247328,89.5059406 L15.8838168,89.5059406 C15.6734351,89.5059406 15.499771,89.6237624 15.499771,89.7673267 C15.499771,89.9108911 15.6734351,90.0277228 15.8838168,90.0277228 L17.921145,90.0277228 C18.1335115,90.0277228 18.311145,89.9524752 18.3141221,89.8613861 C18.3170992,89.7693069 18.3061832,89.519802 18.2883206,89.3118812 C18.2883206,89.3118812 18.2694656,89.0990099 18.1682443,88.829703 C18.0670229,88.5574257 17.9340458,88.3831683 17.9340458,88.3831683 C17.8050382,88.2158416 17.5668702,87.9653465 17.4041221,87.8277228 L16.8732061,87.380198 C16.7114504,87.2425743 16.4484733,87.0178218 16.2887023,86.8772277 C16.2887023,86.8772277 16.2222137,86.8207921 16.1209924,86.6722772 C16.0267176,86.529703 15.9780916,86.3930693 15.9761069,86.2663366 C15.9761069,86.1376238 15.9929771,86.0138614 16.0326718,85.9039604 C16.0683969,85.7930693 16.1249618,85.6960396 16.1993893,85.6178218" id="Fill-12" fill="#8080BE" sketch:type="MSShapeGroup"></path>
                <path d="M1.73664122,44.2465347 L100.102977,44.2465347 L100.102977,58.1514851 L1.73664122,58.1514851 L1.73664122,44.2465347 Z M2.72900763,57.1613861 L99.1106107,57.1613861 L99.1106107,45.2366337 L2.72900763,45.2366337 L2.72900763,57.1613861 Z" id="Fill-13" fill="#CCCCCC" sketch:type="MSShapeGroup"></path>
                <path d="M68.0505344,71.6465347 L17.0468702,71.6465347 C15.9205344,71.6465347 15.0045802,70.7316832 15.0045802,69.6079208 L15.0045802,64.9831683 C15.0045802,63.8594059 15.9205344,62.9465347 17.0468702,62.9465347 L68.0505344,62.9465347 C69.1768702,62.9465347 70.0938168,63.8594059 70.0938168,64.9831683 L70.0938168,69.6079208 C70.0938168,70.7316832 69.1768702,71.6465347 68.0505344,71.6465347 L68.0505344,71.6465347 Z M17.0468702,63.9366337 C16.4683206,63.9366337 15.9969466,64.4059406 15.9969466,64.9831683 L15.9969466,69.6079208 C15.9969466,70.1861386 16.4683206,70.6564356 17.0468702,70.6564356 L68.0505344,70.6564356 C68.6300763,70.6564356 69.1014504,70.1861386 69.1014504,69.6079208 L69.1014504,64.9831683 C69.1014504,64.4059406 68.6300763,63.9366337 68.0505344,63.9366337 L17.0468702,63.9366337 L17.0468702,63.9366337 Z" id="Fill-14" fill="#CCCCCC" sketch:type="MSShapeGroup"></path>
                <path d="M120.200382,66.1059406 L119.34,65.6108911 L125.812214,54.4237624 L126.671603,54.9188119 L120.200382,66.1059406" id="Fill-15" fill="#CCCCCC" sketch:type="MSShapeGroup"></path>
                <path d="M96.8281679,98.2445545 L96.8281679,98.2445545 C95.9251145,98.2445545 95.0359542,98.0980198 94.1854962,97.8089109 L92.8070992,97.3386139 L94.1864885,96.8712871 C97.1318321,95.8722772 99.1106107,93.1287129 99.1106107,90.0425743 L99.1106107,53.3841584 L120.447481,65.6762376 L103.971221,94.149505 C102.509466,96.6762376 99.7725191,98.2445545 96.8281679,98.2445545 L96.8281679,98.2445545 Z M95.8903817,97.1940594 C96.2,97.2346535 96.5125954,97.2544554 96.8281679,97.2544554 C99.4192366,97.2544554 101.826718,95.8752475 103.111832,93.6544554 L119.091908,66.0386139 L100.102977,55.1 L100.102977,90.0425743 C100.102977,93.0435644 98.458626,95.760396 95.8903817,97.1940594 L95.8903817,97.1940594 Z" id="Fill-16" fill="#CCCCCC" sketch:type="MSShapeGroup"></path>
                <path d="M126.423511,55.3475248 L41.2348092,6.27722772 L41.4829008,5.84851485 C42.9446565,3.32277228 45.6825954,1.75346535 48.6279389,1.75346535 C50.0629008,1.75346535 51.4770229,2.13168317 52.720458,2.84653465 L123.660763,43.7108911 C125.556183,44.8029703 126.91374,46.5732673 127.483359,48.6970297 C128.053969,50.8207921 127.765191,53.029703 126.671603,54.9188119 L126.423511,55.3475248 L126.423511,55.3475248 Z M42.6052672,5.92376238 L126.04542,53.9871287 C126.811527,52.4287129 126.983206,50.6594059 126.524733,48.9524752 C126.023588,47.0851485 124.829771,45.5277228 123.16458,44.5683168 L52.2242748,3.7049505 C51.1326718,3.07623762 49.8882443,2.74356436 48.6279389,2.74356436 C46.2035878,2.74356436 43.9390076,3.95049505 42.6052672,5.92376238 L42.6052672,5.92376238 Z" id="Fill-17" fill="#CCCCCC" sketch:type="MSShapeGroup"></path>
                <path d="M71.5803817,37.5277228 L58.0008397,37.5277228 L45.1229008,30.1108911 C44.6376336,29.8306931 43.9667939,30.0128713 43.6899237,30.490099 L41.3717557,34.4980198 C41.0819847,34.9980198 41.2556489,35.6405941 41.7577863,35.929703 L44.5324427,37.5277228 L23.150916,37.5277228 L41.4829008,5.84851485 L42.3422901,6.34356436 L36.1191603,17.1 L71.5803817,37.5277228 L71.5803817,37.5277228 Z M58.2658015,36.5376238 L67.8778626,36.5376238 L35.6219847,17.9574257 L24.8696947,36.5376238 L40.9172519,36.5376238 C40.2136641,35.9079208 40.0221374,34.850495 40.5123664,34.0029703 L42.8305344,29.9950495 C43.3703817,29.0633663 44.6783206,28.7108911 45.6200763,29.2524752 L58.2658015,36.5376238 L58.2658015,36.5376238 Z" id="Fill-18" fill="#CCCCCC" sketch:type="MSShapeGroup"></path>
                <path d="M119.951298,66.5336634 L99.1106107,54.5277228 L99.1106107,44.7415842 C99.1106107,40.7643564 95.8665649,37.5277228 91.880229,37.5277228 L69.5966412,37.5277228 L69.4815267,37.4613861 L34.7625954,17.4623762 L41.7309924,5.41980198 L126.919695,54.490099 L119.951298,66.5336634 L119.951298,66.5336634 Z M100.102977,53.9564356 L119.588092,65.1811881 L125.564122,54.8524752 L97.2836641,38.5623762 C99.0103817,40.0673267 100.102977,42.280198 100.102977,44.7415842 L100.102977,53.9564356 L100.102977,53.9564356 Z M69.8616031,36.5376238 L91.880229,36.5376238 C92.8041221,36.5376238 93.6932824,36.6910891 94.5229008,36.9722772 L42.0941985,6.77227723 L36.1191603,17.1 L69.8616031,36.5376238 L69.8616031,36.5376238 Z" id="Fill-19" fill="#CCCCCC" sketch:type="MSShapeGroup"></path>
                <path d="M59.9855725,37.5277228 L42.5477099,37.5277228 L41.2616031,36.7871287 C40.2851145,36.2237624 39.9496947,34.9752475 40.5123664,34.0029703 L42.8305344,29.9950495 C43.3703817,29.0633663 44.6783206,28.7108911 45.6200763,29.2524752 L59.9855725,37.5277228 L59.9855725,37.5277228 Z M42.8136641,36.5376238 L56.2810687,36.5376238 L45.1229008,30.1108911 C44.6376336,29.8306931 43.9667939,30.0128713 43.6899237,30.490099 L41.3717557,34.4980198 C41.0819847,34.9980198 41.2556489,35.6405941 41.7577863,35.929703 L42.8136641,36.5376238 L42.8136641,36.5376238 Z" id="Fill-20" fill="#CCCCCC" sketch:type="MSShapeGroup"></path>
                <path d="M92.3773301,99.5376238 L9.09998777,99.5376238 C4.48854542,99.5376238 0.736641221,95.7794772 0.736641221,91.1611417 L0.736641221,44.9130951 C0.736641221,40.2957703 4.48854542,36.5376238 9.09998777,36.5376238 L92.3773301,36.5376238 C96.9867547,36.5376238 100.736641,40.2957703 100.736641,44.9130951 L100.736641,91.1611417 C100.736641,94.7444202 98.4495837,97.9314659 95.0457319,99.0898403 C94.1791319,99.3870149 93.2802487,99.5376238 92.3773301,99.5376238 L92.3773301,99.5376238 Z M9.09998777,37.5484217 C5.04442045,37.5484217 1.74548881,40.8527199 1.74548881,44.9130951 L1.74548881,91.1611417 C1.74548881,95.2225276 5.04442045,98.5268259 9.09998777,98.5268259 L92.3773301,98.5268259 C93.1692754,98.5268259 93.9571854,98.3944114 94.720883,98.1326147 C97.7161515,97.1127196 99.7277936,94.3117987 99.7277936,91.1611417 L99.7277936,44.9130951 C99.7277936,40.8527199 96.4298708,37.5484217 92.3773301,37.5484217 L9.09998777,37.5484217 L9.09998777,37.5484217 Z" id="Fill-21" fill="#CCCCCC" sketch:type="MSShapeGroup"></path>
                <path d="M91.880229,99.7326733 L9.96335878,99.7326733 C4.60656489,99.7326733 0.248091603,95.3851485 0.248091603,90.0425743 L0.248091603,42.7613861 L0.455496183,42.7613861 C1.38137405,38.309901 5.32206107,35.0524752 9.96335878,35.0524752 L22.8651145,35.0524752 L41.1861832,3.38910891 L41.3747328,3.4980198 C43.2096183,1.46237624 45.860229,0.268316832 48.6279389,0.268316832 C50.3229008,0.268316832 51.9960305,0.714851485 53.4637405,1.56039604 L124.405038,42.4247525 C126.644809,43.7148515 128.248473,45.8059406 128.921298,48.3118812 C129.418473,50.1633663 129.364885,52.0574257 128.773435,53.839604 L128.90145,53.9128713 L128.45687,54.8039604 L105.260305,94.8920792 C103.121756,98.5871287 98.6154198,100.538614 94.3472519,99.4009901 C93.5275573,99.6207921 92.6989313,99.7326733 91.880229,99.7326733 L91.880229,99.7326733 Z M2.23282443,44.3376238 L2.23282443,90.0425743 C2.23282443,94.2940594 5.70015267,97.7524752 9.96335878,97.7524752 L91.880229,97.7524752 C92.5996947,97.7524752 93.3330534,97.6415842 94.060458,97.4237624 L94.3452672,97.3386139 L94.6300763,97.4227723 C98.1162595,98.4613861 101.804885,96.9019802 103.541527,93.9019802 L126.531679,54.1712871 L126.633893,53.8831683 C127.333511,52.2792079 127.461527,50.529703 127.004046,48.8247525 C126.468168,46.8287129 125.192977,45.1653465 123.412672,44.139604 L52.471374,3.27623762 C51.3043511,2.6039604 49.9755725,2.24851485 48.6279389,2.24851485 C46.1857252,2.24851485 43.8596183,3.41485149 42.4028244,5.36732673 L42.0941985,5.78217822 L24.0103053,37.0326733 L9.96335878,37.0326733 C6.03259542,37.0326733 2.73198473,39.970297 2.28740458,43.8643564 L2.23282443,44.3376238 L2.23282443,44.3376238 Z" id="Fill-22" fill="#CCCCCC" sketch:type="MSShapeGroup"></path>
            </g>
        </g>
    </g>
</svg>