<?xml version="1.0" encoding="UTF-8" standalone="no"?>
<svg width="130px" height="130px" viewBox="0 0 130 130" version="1.1" xmlns="http://www.w3.org/2000/svg" xmlns:xlink="http://www.w3.org/1999/xlink" xmlns:sketch="http://www.bohemiancoding.com/sketch/ns">
    <!-- Generator: Sketch 3.3.3 (12072) - http://www.bohemiancoding.com/sketch -->
    <title>payments-calendar-icon</title>
    <desc>Created with Sketch.</desc>
    <defs></defs>
    <g id="Page-1" stroke="none" stroke-width="1" fill="none" fill-rule="evenodd" sketch:type="MSPage">
        <g id="payments-calendar-icon" sketch:type="MSArtboardGroup">
            <g id="Imported-Layers" sketch:type="MSLayerGroup" transform="translate(7.000000, 0.000000)">
                <path d="M38,50 L57,50 L57,69 L38,69 L38,50 Z M38.9409667,67.9621456 L56.0590333,67.9621456 L56.0590333,51.0378544 L38.9409667,51.0378544 L38.9409667,67.9621456 Z" id="Fill-1" fill="#CCCCCC" sketch:type="MSShapeGroup"></path>
                <path d="M15,50 L34,50 L34,69 L15,69 L15,50 Z M15.9410133,67.9621456 L33.0589867,67.9621456 L33.0589867,51.0378544 L15.9410133,51.0378544 L15.9410133,67.9621456 Z" id="Fill-2" fill="#CCCCCC" sketch:type="MSShapeGroup"></path>
                <path d="M60,73 L79,73 L79,92 L60,92 L60,73 Z M60.9400258,90.9612213 L78.0580923,90.9612213 L78.0580923,74.0367033 L60.9400258,74.0367033 L60.9400258,90.9612213 Z" id="Fill-3" fill="#8080BE" sketch:type="MSShapeGroup"></path>
                <path d="M60,50 L79,50 L79,69 L60,69 L60,50 Z M60.9400258,67.9621456 L78.0580923,67.9621456 L78.0580923,51.0378544 L60.9400258,51.0378544 L60.9400258,67.9621456 Z" id="Fill-4" fill="#CCCCCC" sketch:type="MSShapeGroup"></path>
                <path d="M38,73 L57,73 L57,92 L38,92 L38,73 Z M38.9409667,90.9612213 L56.0590333,90.9612213 L56.0590333,74.0367033 L38.9409667,74.0367033 L38.9409667,90.9612213 Z" id="Fill-5" fill="#CCCCCC" sketch:type="MSShapeGroup"></path>
                <path d="M15,73 L34,73 L34,92 L15,92 L15,73 Z M15.9410133,90.9612213 L33.0589867,90.9612213 L33.0589867,74.0367033 L15.9410133,74.0367033 L15.9410133,90.9612213 Z" id="Fill-6" fill="#CCCCCC" sketch:type="MSShapeGroup"></path>
                <path d="M38,97 L57,97 L57,116 L38,116 L38,97 Z M38.9409667,114.962259 L56.0590333,114.962259 L56.0590333,98.037741 L38.9409667,98.037741 L38.9409667,114.962259 Z" id="Fill-7" fill="#CCCCCC" sketch:type="MSShapeGroup"></path>
                <path d="M83,50 L102,50 L102,69 L83,69 L83,50 Z M83.9411532,67.9621456 L101.058847,67.9621456 L101.058847,51.0378544 L83.9411532,51.0378544 L83.9411532,67.9621456 Z" id="Fill-8" fill="#CCCCCC" sketch:type="MSShapeGroup"></path>
                <path d="M83,73 L102,73 L102,92 L83,92 L83,73 Z M83.9411532,90.9612213 L101.058847,90.9612213 L101.058847,74.0367033 L83.9411532,74.0367033 L83.9411532,90.9612213 Z" id="Fill-9" fill="#CCCCCC" sketch:type="MSShapeGroup"></path>
                <path d="M60,97 L79,97 L79,116 L60,116 L60,97 Z M60.9400258,114.962259 L78.0580923,114.962259 L78.0580923,98.037741 L60.9400258,98.037741 L60.9400258,114.962259 Z" id="Fill-10" fill="#CCCCCC" sketch:type="MSShapeGroup"></path>
                <path d="M15,97 L34,97 L34,116 L15,116 L15,97 Z M15.9410133,114.962259 L33.0589867,114.962259 L33.0589867,98.037741 L15.9410133,98.037741 L15.9410133,114.962259 Z" id="Fill-11" fill="#CCCCCC" sketch:type="MSShapeGroup"></path>
                <path d="M98.9028533,130 L1,130 L1,41 L116,41 L116,112.407798 L98.9048731,112.407798 L98.9028533,130 L98.9028533,130 Z M2.22340426,128.797297 L97.7439056,128.797297 L97.7459179,111.271363 L114.776596,111.271363 L114.776596,42.2027027 L2.22340426,42.2027027 L2.22340426,128.797297 L2.22340426,128.797297 Z" id="Fill-12" fill="#CCCCCC" sketch:type="MSShapeGroup"></path>
                <path d="M98.2815039,116 L83,116 L83,97 L102,97 L102,111.898848 L98.2815039,111.898848 L98.2815039,116 L98.2815039,116 Z M83.9411532,114.962259 L97.3403507,114.962259 L97.3403507,110.861107 L101.058847,110.861107 L101.058847,98.037741 L83.9411532,98.037741 L83.9411532,114.962259 L83.9411532,114.962259 Z" id="Fill-13" fill="#CCCCCC" sketch:type="MSShapeGroup"></path>
                <path d="M98,130 L98.0020245,111 L102.507592,111 L102.507592,112.019368 L99.0142841,112.019368 L99.0122596,127.539246 L115.284332,111.149847 L116,111.87054 L98,130" id="Fill-14" fill="#CCCCCC" sketch:type="MSShapeGroup"></path>
                <path d="M1,41 L1,15 L22.8260808,15 L22.8260808,22.9785064 C22.8260808,25.5208433 26.0656544,26.6785543 28.146045,26.6785543 C30.2264356,26.6785543 32.465008,25.5208433 32.465008,22.9785064 L32.465008,15 L83.5329897,15 L83.5329897,22.9785064 C83.5329897,25.5208433 85.7715621,26.6785543 87.8519527,26.6785543 C89.9323433,26.6785543 93.1709157,25.5208433 93.1709157,22.9785064 L93.1709157,15 L115,15 L115,41 L1,41 Z M113.787234,39.8695652 L113.787234,16.1304348 L94.035198,16.1304348 L94.035198,23.0782602 C94.035198,26.0314785 91.3692117,27.5769903 88.7351415,27.5769903 C86.1010712,27.5769903 83.435085,26.0314785 83.435085,23.0782602 L83.435085,16.1304348 L32.5619229,16.1304348 L32.5619229,23.0782602 C32.5619229,26.0314785 29.8959366,27.5769903 27.2618664,27.5769903 C24.6277961,27.5769903 21.9608125,26.0314785 21.9608125,23.0782602 L21.9608125,16.1304348 L2.21276596,16.1304348 L2.21276596,39.8695652 L113.787234,39.8695652 Z" id="Fill-15" fill="#CCCCCC" sketch:type="MSShapeGroup"></path>
                <path d="M27.5005175,28 C24.7673347,28 22,26.2439991 22,22.8885708 L22,6.11043823 C22,2.75600088 24.7673347,1 27.5005175,1 C30.2337003,1 33,2.75600088 33,6.11043823 L33,22.8885708 C33,26.2439991 30.2337003,28 27.5005175,28 L27.5005175,28 Z M27.5005175,1.99097115 C25.3499859,1.99097115 23.0349045,3.28022462 23.0349045,6.11043823 L23.0349045,22.8885708 C23.0349045,25.7197754 25.3499859,27.0090288 27.5005175,27.0090288 C29.651049,27.0090288 31.9650955,25.7197754 31.9650955,22.8885708 L31.9650955,6.11043823 C31.9650955,3.28022462 29.651049,1.99097115 27.5005175,1.99097115 L27.5005175,1.99097115 Z" id="Fill-16" fill="#CCCCCC" sketch:type="MSShapeGroup"></path>
                <path d="M88.5,28 C85.76656,28 83,26.2439991 83,22.8885708 L83,6.11043823 C83,2.75600088 85.76656,1 88.5,1 C91.23344,1 94,2.75600088 94,6.11043823 L94,22.8885708 C94,26.2439991 91.23344,28 88.5,28 L88.5,28 Z M88.5,1.99097115 C86.3492661,1.99097115 84.0350019,3.28022462 84.0350019,6.11043823 L84.0350019,22.8885708 C84.0350019,25.7197754 86.3492661,27.0090288 88.5,27.0090288 C90.6507339,27.0090288 92.9649981,25.7197754 92.9649981,22.8885708 L92.9649981,6.11043823 C92.9649981,3.28022462 90.6507339,1.99097115 88.5,1.99097115 L88.5,1.99097115 Z" id="Fill-17" fill="#CCCCCC" sketch:type="MSShapeGroup"></path>
                <path d="M98.0365709,130 L0,130 L0,13.122 L20.6463305,13.122 L20.6463305,6.657 C20.6463305,2.287 24.048841,0 27.4106564,0 C30.7714792,0 34.1739897,2.287 34.1739897,6.657 L34.1739897,13.122 L81.8240252,13.122 L81.8240252,6.657 C81.8240252,2.287 85.2265357,0 88.5873585,0 C91.9481813,0 95.3506918,2.287 95.3506918,6.657 L95.3506918,13.122 L116,13.122 L116,111.812 L98.0365709,130 L98.0365709,130 Z M1.98612121,128 L97.2107573,128 L114.014871,110.985 L114.014871,15.122 L93.3655632,15.122 L93.3655632,6.657 C93.3655632,3.458 90.8891152,2 88.5873585,2 C86.2865944,2 83.8091538,3.458 83.8091538,6.657 L83.8091538,15.122 L32.188861,15.122 L32.188861,6.657 C32.188861,3.458 29.7114205,2 27.4106564,2 C25.1088997,2 22.6314592,3.458 22.6314592,6.657 L22.6314592,15.122 L1.98612121,15.122 L1.98612121,128 L1.98612121,128 Z" id="Fill-18" fill="#CCCCCC" sketch:type="MSShapeGroup"></path>
                <path d="M61.2148462,80.5620844 C61.0686923,80.389673 61,80.2429095 61,80.1146696 C61,79.9750305 61.0657692,79.8553399 61.1943846,79.7484733 C61.3215385,79.6444565 61.4735385,79.5546886 61.6489231,79.4862939 C61.8257692,79.4207491 62.0201538,79.3680282 62.2218462,79.3366807 C62.4235385,79.3024834 62.596,79.2868096 62.7363077,79.2868096 C62.8839231,79.2868096 63.0125385,79.319582 63.1119231,79.3922513 C63.2142308,79.4592211 63.3296923,79.5561134 63.4583077,79.6857783 C64.3396154,80.5492604 65.1478462,81.4740128 65.8669231,82.4671597 C66.5845385,83.4574569 67.2480769,84.4392048 67.8575385,85.4124033 C69.037,82.2363279 70.405,79.1571448 71.9688462,76.1777039 C73.5341538,73.1968381 75.2923846,70.4012078 77.245,67.7965124 C77.4335385,67.5400326 77.7316923,67.343398 78.1365385,67.203759 C78.5311538,67.0683946 78.9798462,67 79.4753077,67 C79.6375385,67 79.7690769,67.0299226 79.8611538,67.0883431 C79.9546923,67.1453386 80,67.2336816 80,67.343398 C80,67.4531144 79.9868462,67.5457321 79.9546923,67.6255259 C79.9313077,67.7024698 79.8611538,67.8064866 79.7617692,67.9347266 C78.7138462,69.2798209 77.7053846,70.6947347 76.7217692,72.1737685 C75.7381538,73.6513774 74.7969231,75.20878 73.9053846,76.8431266 C73.0109231,78.4817479 72.1617692,80.2001628 71.3623077,81.9969467 C70.5657692,83.79943 69.8233077,85.6874067 69.1553846,87.669426 C69.1363846,87.7249966 69.0866923,87.770593 69.0077692,87.8147646 C68.9171538,87.8546614 68.8177692,87.8888587 68.6906154,87.9145067 C68.5707692,87.9444294 68.4304615,87.9672276 68.2828462,87.9786267 C68.1337692,87.9928756 67.9846923,88 67.8341538,88 C67.6149231,88 67.4176154,87.9786267 67.2436923,87.9373049 C67.0580769,87.8945583 66.9294615,87.8033654 66.8446923,87.669426 C66.3901538,86.9170851 65.9721538,86.2530873 65.5892308,85.6817072 C65.2019231,85.1089022 64.8146154,84.5731443 64.4170769,84.0772832 C64.0195385,83.5814222 63.6059231,83.1012349 63.1806154,82.629597 C62.7523846,82.1622337 62.2700769,81.6649478 61.7512308,81.1306147 C61.5276154,80.9225811 61.3522308,80.7302212 61.2148462,80.5620844 Z" id="Fill-19" fill="#8080BE" sketch:type="MSShapeGroup"></path>
            </g>
        </g>
    </g>
</svg>