<?xml version="1.0" encoding="UTF-8" standalone="no"?>
<svg width="130px" height="130px" viewBox="0 0 130 130" version="1.1" xmlns="http://www.w3.org/2000/svg" xmlns:xlink="http://www.w3.org/1999/xlink" xmlns:sketch="http://www.bohemiancoding.com/sketch/ns">
    <!-- Generator: Sketch 3.3.3 (12072) - http://www.bohemiancoding.com/sketch -->
    <title>payments-mail-icon</title>
    <desc>Created with Sketch.</desc>
    <defs></defs>
    <g id="Page-1" stroke="none" stroke-width="1" fill="none" fill-rule="evenodd" sketch:type="MSPage">
        <g id="payments-mail-icon" sketch:type="MSArtboardGroup">
            <g id="Imported-Layers" sketch:type="MSLayerGroup" transform="translate(1.000000, 8.000000)">
                <path d="M3.10798897,119 L2.8097598,118.747509 C2.27783629,118.297201 1.98449612,117.692815 1.98449612,117.044689 L1.98449612,47.8225086 C1.98449612,47.1793534 2.2856587,46.5580676 2.8097598,46.1167061 L2.94567407,46.0043776 L3.11972257,46.0033835 C3.32114949,45.9815143 3.32897189,46.0013954 6.10299208,48.1614821 C7.01528,48.870245 8.03805939,49.665491 8.96403652,50.3792242 L12.2817138,52.9269933 L50.6046512,82.4316107 L3.10798897,119 L3.10798897,119 Z M3.18425741,47.1515198 C3.03954293,47.3543075 2.96229668,47.5839348 2.96229668,47.8225086 L2.96229668,117.044689 C2.96229668,117.276304 3.03563173,117.499967 3.17545721,117.700767 L48.9854134,82.4316107 L8.37442278,51.172482 C7.43866765,50.4517904 6.40611026,49.648592 5.48795553,48.9338647 C4.58251221,48.229078 3.65360168,47.5054042 3.18425741,47.1515198 L3.18425741,47.1515198 Z" id="Fill-1" fill="#CCCCCC" sketch:type="MSShapeGroup"></path>
                <path d="M125.881416,119 L78.3875969,82.4304118 L120.021929,50.3761031 C120.924366,49.6812153 121.919687,48.9077922 122.81528,48.2129045 C125.66534,46 125.66534,46 125.867728,46 L126.041763,46 L126.177666,46.1123352 C126.704658,46.5527291 127.007752,47.1750463 127.007752,47.8192341 L127.007752,117.045566 C127.007752,117.695718 126.713458,118.300142 126.179621,118.749483 L125.881416,119 L125.881416,119 Z M80.0067044,82.4304118 L125.814931,117.702677 C125.955723,117.501866 126.03003,117.277195 126.03003,117.045566 L126.03003,47.8192341 C126.03003,47.580646 125.95279,47.3519991 125.808087,47.1491993 C125.321182,47.5180167 124.34346,48.2775221 123.390181,49.0171451 C122.498498,49.7100447 121.510022,50.477503 120.612473,51.1684143 L80.0067044,82.4304118 L80.0067044,82.4304118 Z" id="Fill-2" fill="#CCCCCC" sketch:type="MSShapeGroup"></path>
                <path d="M123.811693,119 L4.19125758,119 C3.55794457,119 2.94626649,118.786782 2.46931493,118.398667 L1.98449612,118.003674 L43.193111,86.8257433 C46.6212619,84.2327409 50.8223692,81.0511791 52.527594,79.7551692 C53.5532857,78.9848342 55.1129665,77.8077153 56.6736307,76.6237184 L59.6690831,74.3588944 C60.828518,73.4814593 62.3675472,73 64.0019668,73 C65.6373698,73 67.1744322,73.4824419 68.3319003,74.3588944 L71.3253859,76.6237184 C72.8939174,77.8077153 74.4545815,78.9858168 75.4694558,79.7551692 L76.8590075,80.8075017 C78.9231752,82.3707707 82.106458,84.781015 84.811806,86.8257433 L126.015504,118.002691 L125.533635,118.397685 C125.060617,118.786782 124.447956,119 123.811693,119 L123.811693,119 Z M3.68775407,117.946685 C3.84903254,117.993848 4.01916165,118.01743 4.19125758,118.01743 L123.811693,118.01743 C123.984772,118.01743 124.153918,117.993848 124.314213,117.947667 L84.2188126,87.6078691 C81.5124813,85.5641234 78.3291984,83.153879 76.2650307,81.59061 L74.875479,80.5382775 C73.8596214,79.7689252 72.300924,78.5908237 70.7323926,77.4068267 L67.7379235,75.1420027 C66.7505846,74.3942669 65.4239708,73.9825701 64.0019668,73.9825701 C62.5799628,73.9825701 61.2523656,74.3942669 60.2630599,75.1420027 L57.2676074,77.4068267 C55.7069433,78.5908237 54.1452957,79.7699077 53.1205874,80.5392601 C51.4183128,81.8333049 47.2162221,85.0158493 43.7870878,87.6078691 L3.68775407,117.946685 L3.68775407,117.946685 Z" id="Fill-3" fill="#CCCCCC" sketch:type="MSShapeGroup"></path>
                <path d="M4.54534523,119 C3.90956861,119 3.29646309,118.785046 2.82036989,118.392779 C2.28119188,117.943059 1.98449612,117.340791 1.98449612,116.693947 L1.98449612,47.7144212 C1.98449612,47.0725301 2.28907748,46.4534221 2.81938419,46.0145984 L22.6595577,30.8994485 L22.6595577,16.3578402 L41.7703132,16.3578402 L53.0023669,7.81613123 C54.0196095,7.03655046 55.5839157,5.84489141 57.1570932,4.65026065 L60.1546075,2.36798099 C61.316748,1.48637123 62.8583832,1 64.4956312,1 C66.1338649,1 67.6755,1.48637123 68.8386262,2.36699042 L71.8420547,4.65125123 C73.406361,5.84489141 74.9706672,7.03655046 75.9967811,7.81613123 L87.2239063,16.3578402 L106.331705,16.3578402 L106.331705,30.9034108 L126.158078,46.0017209 C126.704156,46.4534221 127.007752,47.0725301 127.007752,47.7144212 L127.007752,116.693947 C127.007752,117.340791 126.712042,117.943059 126.175821,118.390798 C125.697756,118.785046 125.084651,119 124.446903,119 L4.54534523,119 Z M23.6452579,17.348413 L23.6452579,31.3907726 L3.43051831,46.7912074 C3.13973675,47.0329072 2.97019632,47.364749 2.97019632,47.7144212 L2.97019632,116.693947 C2.97019632,117.040647 3.13973675,117.372489 3.44727522,117.629047 C3.74495667,117.873719 4.13627965,118.009427 4.54534523,118.009427 L124.446903,118.009427 C124.85794,118.009427 125.249263,117.873719 125.548916,117.627066 C125.853497,117.372489 126.022052,117.040647 126.022052,116.693947 L126.022052,47.7144212 C126.022052,47.364749 125.853497,47.0319166 125.546944,46.77833 L105.346004,31.3947349 L105.346004,17.348413 L86.892711,17.348413 L75.4024039,8.60561772 C74.3753042,7.82603695 72.810998,6.63437791 71.2466918,5.44073772 L68.244249,3.15746749 C67.2526346,2.40562276 65.9209537,1.99057277 64.4956312,1.99057277 C63.0703087,1.99057277 61.7405991,2.40562276 60.7499704,3.15845806 L57.7504847,5.44073772 C56.1782929,6.63437791 54.6159581,7.82603695 53.5987155,8.60462715 L42.1024941,17.348413 L23.6452579,17.348413 L23.6452579,17.348413 Z" id="Fill-4" fill="#CCCCCC" sketch:type="MSShapeGroup"></path>
                <path d="M3.58583485,120 C2.94000595,120 2.31720661,119.781402 1.8335859,119.382487 C1.28588294,118.925145 0.984496124,118.312668 0.984496124,117.654861 L0.984496124,47.5061911 C0.984496124,46.8534204 1.29389322,46.2238191 1.83258462,45.7775577 L21.9864514,30.4062188 L21.9864514,15.6181426 L41.3993672,15.6181426 L52.8090111,6.93165887 C53.8423373,6.13886487 55.4313768,4.92700822 57.0294278,3.71212948 L60.0743358,1.39116711 C61.254851,0.49461481 62.8208609,0 64.4839955,0 C66.1481313,0 67.7141413,0.49461481 68.8956577,1.39015975 L71.9465734,3.71313684 C73.5356129,4.92700822 75.1246524,6.13886487 76.1669902,6.93165887 L87.5716276,15.6181426 L106.98154,15.6181426 L106.98154,30.4102482 L127.121388,45.7644619 C127.6761,46.2238191 127.984496,46.8534204 127.984496,47.5061911 L127.984496,117.654861 C127.984496,118.312668 127.684111,118.925145 127.139411,119.380472 C126.653788,119.781402 126.030989,120 125.383157,120 L3.58583485,120 Z M22.9877365,16.6255047 L22.9877365,30.9058704 L2.45338139,46.5673296 C2.15800228,46.8131259 1.98578124,47.1505922 1.98578124,47.5061911 L1.98578124,117.654861 C1.98578124,118.007438 2.15800228,118.344904 2.47040323,118.605811 C2.77279134,118.854629 3.17030153,118.992638 3.58583485,118.992638 L125.383157,118.992638 C125.800693,118.992638 126.198203,118.854629 126.502594,118.603796 C126.811991,118.344904 126.983211,118.007438 126.983211,117.654861 L126.983211,47.5061911 C126.983211,47.1505922 126.811991,46.8121186 126.500592,46.5542339 L105.980254,30.9098999 L105.980254,16.6255047 L87.2351958,16.6255047 L75.5632153,7.7345265 C74.5198762,6.94173249 72.9308367,5.72987584 71.3417972,4.51600447 L68.2918828,2.19403474 C67.2845899,1.42944687 65.9318538,1.00736214 64.4839955,1.00736214 C63.0361372,1.00736214 61.6854036,1.42944687 60.679112,2.1950421 L57.6322014,4.51600447 C56.0351517,5.72987584 54.4481148,6.94173249 53.4147885,7.73351914 L41.7368003,16.6255047 L22.9877365,16.6255047 L22.9877365,16.6255047 Z" id="Fill-4-Copy" fill="#CCCCCC" sketch:type="MSShapeGroup"></path>
                <path d="M78.2929393,83 L74.8588108,80.3798325 C73.8354147,79.5989746 72.2636291,78.4017258 70.6819268,77.1984858 L67.6623134,74.8968524 C66.6666838,74.1369638 65.3289306,73.7175773 63.8949861,73.7175773 C62.4610416,73.7175773 61.1222967,74.1369638 60.1246839,74.8968524 L57.1040788,77.1984858 C55.5303098,78.4017258 53.9555491,79.5999732 52.9222364,80.3818296 C52.4402883,80.7572804 51.7401743,81.2895019 50.9121358,81.9205789 L49.4940579,83 L21.8217054,61.8988643 L21.8217054,16 L106,16 L106,61.8719038 L105.803651,62.0206862 L78.2929393,83 L78.2929393,83 Z M22.8133683,61.4015917 L49.4940579,81.7478315 L50.3141631,81.1227458 C51.1392266,80.4956631 51.8363656,79.9664372 52.3202971,79.5879907 C53.3585681,78.8021402 54.9313454,77.6058899 56.5051144,76.4026499 L59.5257195,74.1010164 C60.69489,73.2093207 62.2468424,72.7190378 63.8949861,72.7190378 C65.5441215,72.7190378 67.0940905,73.2103192 68.2612777,74.1010164 L71.2798995,76.4026499 C72.8616018,77.6058899 74.4353708,78.8031387 75.4587669,79.5849951 L78.2929393,81.7478315 L105.008337,61.3746311 L105.008337,16.9985394 L22.8133683,16.9985394 L22.8133683,61.4015917 L22.8133683,61.4015917 Z" id="Fill-6" fill="#8080BE" sketch:type="MSShapeGroup"></path>
            </g>
        </g>
    </g>
</svg>